<?xml version="1.0" encoding="UTF-8"?>
<!DOCTYPE svg PUBLIC "-//W3C//DTD SVG 1.1//EN" "http://www.w3.org/Graphics/SVG/1.1/DTD/svg11.dtd">
<!-- Creator: CorelDRAW X7 -->
<svg xmlns="http://www.w3.org/2000/svg" xml:space="preserve" width="0.766661in" height="0.213331in" version="1.1" style="shape-rendering:geometricPrecision; text-rendering:geometricPrecision; image-rendering:optimizeQuality; fill-rule:evenodd; clip-rule:evenodd"
viewBox="0 0 767 213"
 xmlns:xlink="http://www.w3.org/1999/xlink">
 <defs>
  <style type="text/css">
   <![CDATA[
    .fil2 {fill:#F1DF9C;fill-rule:nonzero}
    .fil0 {fill:#C1933D;fill-rule:nonzero}
    .fil1 {fill:url(#id0)}
   ]]>
  </style>
  <linearGradient id="id0" gradientUnits="userSpaceOnUse" x1="11.8661" y1="190.835" x2="170.39" y2="32.315">
   <stop offset="0" style="stop-opacity:1; stop-color:#F2DF9E"/>
   <stop offset="0.278431" style="stop-opacity:1; stop-color:#F2DF9E"/>
   <stop offset="0.34902" style="stop-opacity:1; stop-color:#CEA450"/>
   <stop offset="1" style="stop-opacity:1; stop-color:#F2DF9E"/>
  </linearGradient>
 </defs>
 <g id="Layer_x0020_1">
  <metadata id="CorelCorpID_0Corel-Layer"/>
  <g id="_1992521766960">
   <polygon class="fil0" points="374,173 194,173 194,171 374,171 "/>
   <path class="fil1" d="M169 31l-129 0c-21,0 -37,16 -37,37l0 114 166 0 0 -151zm-98 15l0 0 0 0 29 0 0 0 0 0 59 120 -2 0 -27 0 -75 0 14 -27 48 0 -31 -63 -45 90 -29 0 59 -120z"/>
   <path class="fil2" d="M250 83l-14 -38 -14 38 28 0zm19 23c2,6 7,8 10,8l1 0 0 1 -26 0 0 -1 1 0c3,0 6,-3 4,-8l-7 -20 -32 0 -8 20c-1,5 2,8 5,8l1 0 0 1 -24 0 0 -1 1 0c4,0 8,-2 11,-8l26 -63c0,0 4,-9 4,-12l2 0 31 75z"/>
   <path class="fil2" d="M600 111l23 0c21,0 34,-15 34,-37 0,-23 -14,-38 -34,-38l-23 0 0 75zm23 -78c26,0 43,16 43,41 0,24 -17,41 -43,41l-39 0 0 -1 1 0c4,0 8,-4 8,-8l0 -65c0,-4 -4,-7 -8,-7l-1 0 0 -1 39 0z"/>
   <path class="fil2" d="M755 74c0,-24 -13,-39 -33,-39 -20,0 -33,15 -33,39 0,23 13,39 33,39 20,0 33,-16 33,-39zm9 0c0,25 -17,43 -42,43 -25,0 -42,-18 -42,-43 0,-26 17,-43 42,-43 25,0 42,17 42,43z"/>
   <path class="fil2" d="M600 175l-4 -9 -3 9 7 0zm4 5c1,2 2,2 2,2l1 0 0 0 -7 0 0 0 1 0c0,0 1,0 1,-2l-2 -4 -8 0 -1 4c-1,2 0,2 1,2l0 0 0 0 -6 0 0 0 1 0c0,0 1,0 2,-2l6 -15c0,0 1,-2 1,-2l1 0 7 17z"/>
   <path class="fil2" d="M617 174c1,1 1,3 1,4 0,3 -2,5 -5,5 -2,0 -4,-1 -5,-2 0,-1 0,-2 0,-4l1 0c-1,3 1,5 4,5 2,0 3,-1 3,-4 0,-1 0,-2 -1,-2l-5 -5c-1,-1 -1,-3 -1,-4 0,-2 1,-4 4,-4 1,0 2,0 3,0l1 0 0 0 0 3 0 0c0,-1 -2,-3 -4,-3 -2,0 -3,2 -3,4 0,0 0,1 1,2l6 5z"/>
   <path class="fil2" d="M630 174c1,1 1,3 1,4 0,3 -2,5 -5,5 -1,0 -4,-1 -5,-2 0,-1 0,-2 1,-4l0 0c0,3 1,5 4,5 2,0 4,-1 4,-4 0,-1 -1,-2 -1,-2l-6 -5c-1,-1 -1,-3 -1,-4 0,-2 1,-4 5,-4 0,0 1,0 2,0l1 0 0 0 0 3 0 0c0,-1 -2,-3 -3,-3 -2,0 -4,2 -4,4 0,0 1,1 1,2l6 5z"/>
   <path class="fil2" d="M653 173c0,-6 -3,-10 -8,-10 -5,0 -8,4 -8,10 0,5 3,9 8,9 5,0 8,-4 8,-9zm2 0c0,6 -4,10 -10,10 -6,0 -10,-4 -10,-10 0,-6 4,-10 10,-10 6,0 10,4 10,10z"/>
   <path class="fil2" d="M676 174l0 5c-2,2 -4,4 -8,4 -6,0 -10,-4 -10,-10 0,-6 4,-10 10,-10 3,0 5,0 7,1l0 4 0 0c-1,-3 -4,-5 -7,-5 -5,0 -8,4 -8,10 0,5 3,9 8,9 4,0 7,-2 8,-8l0 0z"/>
   <path class="fil2" d="M685 182l-6 0 0 0 0 0c1,0 2,-1 2,-2l0 -15c0,-1 -1,-2 -2,-2l0 0 0 0 6 0 0 0 0 0c-1,0 -2,1 -2,2l0 15c0,1 1,2 2,2l0 0 0 0z"/>
   <path class="fil2" d="M700 175l-4 -9 -3 9 7 0zm4 5c1,2 2,2 3,2l0 0 0 0 -6 0 0 0 0 0c1,0 1,0 1,-2l-2 -4 -7 0 -2 4c-1,2 0,2 1,2l0 0 0 0 -6 0 0 0 1 0c1,0 2,0 2,-2l6 -15c0,0 1,-2 1,-2l1 0 7 17z"/>
   <path class="fil2" d="M712 182l6 0c4,0 8,-4 8,-9 0,-6 -4,-9 -8,-9l-6 0 0 18zm6 -19c6,0 10,4 10,10 0,6 -4,9 -10,9l-10 0 0 0 1 0c1,0 1,-1 1,-2l0 -15c0,-1 0,-2 -1,-2l-1 0 0 0 10 0z"/>
   <path class="fil2" d="M749 173c0,-6 -3,-10 -8,-10 -5,0 -8,4 -8,10 0,5 3,9 8,9 5,0 8,-4 8,-9zm2 0c0,6 -4,10 -10,10 -6,0 -10,-4 -10,-10 0,-6 4,-10 10,-10 6,0 10,4 10,10z"/>
   <path class="fil2" d="M347 115l0 0 -61 0 0 -1 49 -78 -39 0c-4,0 -7,3 -7,7l0 2 -1 0 0 -9 0 -2 0 -4c2,1 9,3 14,3l33 0c4,0 11,-1 12,-2l0 1 -50 79 37 0c9,0 14,-6 16,-14l1 0 -4 18z"/>
   <path class="fil2" d="M511 33l0 1 -1 0c-3,0 -8,2 -10,7l-28 63c0,0 -5,10 -5,13l-1 0 -33 -76c-2,-5 -6,-7 -10,-7l-1 0 0 -1 26 0 0 1 -1 0c-3,0 -6,3 -4,7l25 62 25 -62c2,-4 -1,-7 -4,-7l-1 0 0 -1 23 0z"/>
   <path class="fil2" d="M566 115l-49 0 0 -1 2 0c4,0 7,-4 7,-8l0 -65c0,-4 -3,-7 -7,-7l-2 0 0 -1 34 0c6,0 12,-2 14,-2l0 3 0 2 0 9 -1 0 0 -2c0,-3 -3,-6 -6,-7l-24 0 0 37 20 0c3,0 5,-3 5,-6l0 -2 1 0 0 19 -1 0 0 -2c0,-3 -2,-6 -5,-6l-20 0 0 35 17 0c12,0 17,-6 20,-15l2 0 -7 19z"/>
   <path class="fil2" d="M420 182l5 0c5,0 8,-4 8,-9 0,-6 -3,-9 -8,-9l-5 0 0 18zm5 -19c6,0 10,4 10,10 0,6 -4,9 -10,9l-9 0 0 0 0 0c1,0 2,-1 2,-2l0 -15c0,-1 -1,-2 -2,-2l0 0 0 0 9 0z"/>
   <path class="fil2" d="M457 163l0 0 -1 0c0,0 -1,1 -2,2l-7 15c0,0 -1,2 -1,3l0 0 -8 -18c0,-1 -1,-2 -2,-2l-1 0 0 0 7 0 0 0 0 0c-1,0 -2,1 -2,2l6 15 6 -15c1,-1 0,-2 -1,-2l0 0 0 0 6 0z"/>
   <path class="fil2" d="M475 173c0,-6 -3,-10 -8,-10 -4,0 -8,4 -8,10 0,5 4,9 8,9 5,0 8,-4 8,-9zm2 0c0,6 -4,10 -10,10 -6,0 -10,-4 -10,-10 0,-6 4,-10 10,-10 6,0 10,4 10,10z"/>
   <path class="fil2" d="M500 173c-1,0 -2,1 -2,2l0 4c-1,2 -3,4 -8,4 -6,0 -10,-4 -10,-10 0,-6 4,-10 10,-10 3,0 5,0 7,1l1 4 -1 0c0,-3 -3,-5 -7,-5 -4,0 -8,4 -8,10 0,5 4,9 8,9 3,0 5,-1 7,-2l0 -5c0,-1 -1,-2 -2,-2l0 0 0 0 5 0 0 0 0 0z"/>
   <path class="fil2" d="M514 175l-3 -9 -4 9 7 0zm4 5c1,2 2,2 3,2l0 0 0 0 -6 0 0 0 0 0c1,0 1,0 1,-2l-2 -4 -7 0 -2 4c-1,2 0,2 1,2l0 0 0 0 -5 0 0 0 0 0c1,0 2,0 2,-2l7 -15c0,0 1,-2 1,-2l0 0 7 17z"/>
   <path class="fil2" d="M526 182l6 0c4,0 8,-4 8,-9 0,-6 -4,-9 -8,-9l-6 0 0 18zm6 -19c6,0 10,4 10,10 0,6 -4,9 -10,9l-10 0 0 0 1 0c1,0 1,-1 1,-2l0 -15c0,-1 0,-2 -1,-2l-1 0 0 0 10 0z"/>
   <path class="fil2" d="M563 173c0,-6 -3,-10 -8,-10 -5,0 -8,4 -8,10 0,5 3,9 8,9 5,0 8,-4 8,-9zm2 0c0,6 -4,10 -10,10 -6,0 -10,-4 -10,-10 0,-6 4,-10 10,-10 6,0 10,4 10,10z"/>
   <path class="fil2" d="M577 174c1,1 1,3 1,4 0,3 -2,5 -5,5 -2,0 -4,-1 -5,-2 0,-1 0,-2 0,-4l1 0c-1,3 1,5 4,5 2,0 3,-1 3,-4 0,-1 0,-2 -1,-2l-5 -5c-1,-1 -2,-3 -2,-4 0,-2 2,-4 5,-4 1,0 2,0 3,0l1 0 0 0 0 3 0 0c0,-1 -2,-3 -4,-3 -2,0 -3,2 -3,4 0,0 0,1 1,2l6 5z"/>
   <path class="fil2" d="M411 115l-49 0 0 -1 2 0c4,0 7,-4 7,-8l0 -65c0,-4 -3,-7 -7,-7l-1 0 0 -1 34 0c5,0 12,-2 14,-2l0 3 0 2 0 9 -1 0 0 -2c0,-3 -3,-6 -7,-7l-24 0 0 37 20 0c3,0 6,-3 6,-6l0 -2 1 0 0 19 -1 0 0 -2c0,-3 -3,-6 -6,-6l-20 0 0 35 17 0c12,0 17,-6 21,-15l1 0 -7 19z"/>
   <path class="fil2" d="M408 175l-4 -9 -3 9 7 0zm4 5c0,2 1,2 2,2l1 0 0 0 -7 0 0 0 1 0c0,0 1,0 1,-2l-2 -4 -8 0 -2 4c0,2 1,2 2,2l0 0 0 0 -6 0 0 0 0 0c1,0 2,0 3,-2l6 -15c0,0 1,-2 1,-2l0 0 8 17z"/>
   <path class="fil2" d="M763 174c1,1 1,3 1,4 0,3 -2,5 -5,5 -2,0 -4,-1 -5,-2 0,-1 0,-2 0,-4l1 0c-1,3 1,5 4,5 2,0 3,-1 3,-4 0,-1 0,-2 -1,-2l-5 -5c-1,-1 -2,-3 -2,-4 0,-2 2,-4 5,-4 1,0 2,0 3,0l1 0 0 0 0 3 0 0c0,-1 -2,-3 -4,-3 -2,0 -3,2 -3,4 0,0 0,1 1,2l6 5z"/>
  </g>
 </g>
</svg>
