<svg xmlns="http://www.w3.org/2000/svg" xml:space="preserve" width="1264.852" height="253.22" version="1.1" viewBox="0 0 13175.757 2637.82" id="svg75" clip-rule="evenodd" fill-rule="evenodd" image-rendering="optimizeQuality" shape-rendering="geometricPrecision" text-rendering="geometricPrecision"><defs id="defs13"><linearGradient id="id0" gradientUnits="userSpaceOnUse" x1="916.224" y1="3256.22" x2="1969.71" y2="2202.73" gradientTransform="matrix(2.60397 0 0 2.60397 -2226.474 -5702.69)"><stop offset="0" id="stop4" stop-opacity="1" stop-color="#f2df9e"/><stop offset=".278" id="stop6" stop-opacity="1" stop-color="#f2df9e"/><stop offset=".349" id="stop8" stop-opacity="1" stop-color="#cea450"/><stop offset="1" id="stop10" stop-opacity="1" stop-color="#f2df9e"/></linearGradient><style type="text/css" id="style2">.fil1{fill:#f1df9c;fill-rule:nonzero}</style></defs><path id="path18" d="M4288.655 906.18L4043.882 255.19l-255.19 650.992zm320.288 406.22c39.06 91.139 114.574 130.198 177.07 130.198h18.227v18.228h-458.298v-18.228h18.228c52.08 0 106.763-46.871 78.119-127.594L4312.09 968.676h-546.833l-138.01 346.328c-28.644 80.723 26.04 127.594 78.119 127.594h18.228v18.228H3314.77v-18.228h18.228c62.496 0 138.01-39.06 177.07-127.594l460.903-1093.667s75.515-164.05 75.515-210.921h18.228z" class="fil1" fill="#f1df9c" fill-rule="nonzero" stroke-width="2.604"/><path id="path20" d="M5968.214 1460.826H4903.191v-18.228L5757.293 98.951h-684.844c-65.099 2.604-119.782 54.683-119.782 122.386v36.456h-20.832V0c39.06 18.228 161.446 39.06 247.377 39.06h565.06c80.724 0 190.09-15.624 213.526-28.644v18.228l-867.121 1372.29h645.784c151.03 0 239.565-111.97 278.624-252.584h20.832z" class="fil1" fill="#f1df9c" fill-rule="nonzero" stroke-width="2.604"/><path id="path22" d="M7069.693 1460.826h-843.686v-18.228h26.04c72.911 0 130.198-57.287 130.198-127.594V177.07c-5.208-65.1-62.495-117.179-127.594-117.179h-26.04V39.06h591.1c88.536 0 205.714-20.831 242.17-36.455v257.793h-18.228V223.94c0-65.099-52.08-117.178-114.575-122.386h-414.03V729.11h343.724c54.683 0 96.346-44.267 96.346-98.95v-31.248h20.832v322.892h-20.832v-31.248c0-52.08-41.663-96.347-93.743-98.95h-346.327v609.328h291.644c213.525 0 296.852-111.97 359.348-268.209h20.831z" class="fil1" fill="#f1df9c" fill-rule="nonzero" stroke-width="2.604"/><path id="path24" d="M8801.332 39.06V59.89h-18.228c-62.495 0-138.01 36.456-177.07 127.595l-489.546 1093.666s-75.515 164.05-75.515 208.318h-18.228L7452.476 187.486c-41.663-91.14-117.178-127.595-179.673-127.595h-15.624V39.06h458.298v20.832h-18.228c-52.08 0-106.763 46.872-78.119 127.595l427.05 1062.419 440.072-1062.42c31.247-80.722-23.436-127.594-75.516-127.594h-18.227V39.06z" class="fil1" fill="#f1df9c" fill-rule="nonzero" stroke-width="2.604"/><path id="path26" d="M9743.968 1460.826h-841.082v-18.228h26.04c70.307 0 127.595-57.287 130.199-127.594V177.07c-7.812-65.1-62.496-117.179-130.199-117.179h-26.04V39.06h593.705c88.535 0 205.714-20.831 242.17-36.455v257.793h-20.833V223.94c0-65.099-49.475-117.178-111.97-122.386h-414.031V729.11h341.12c54.683 0 98.95-44.267 98.95-98.95v-31.248h20.832v322.892h-20.832v-31.248c0-52.08-41.663-96.347-96.346-98.95h-343.724v609.328h291.644c213.526 0 296.853-111.97 359.348-268.209h20.832z" class="fil1" fill="#f1df9c" fill-rule="nonzero" stroke-width="2.604"/><path id="path28" d="M10342.881 1400.935h401.011c346.328 0 575.477-260.397 575.477-648.388 0-390.595-231.753-650.992-575.477-650.992h-401.011zm401.011-1361.876c432.259 0 729.111 286.437 729.111 713.488 0 424.447-296.852 708.28-729.111 708.28h-687.448v-18.229h23.436c72.911 0 130.198-57.287 132.802-127.594V177.07c0-65.1-62.495-117.179-130.198-117.179h-26.04V39.06z" class="fil1" fill="#f1df9c" fill-rule="nonzero" stroke-width="2.604"/><path id="path30" d="M13019.76 749.943c0-406.22-229.149-677.032-575.477-677.032-343.724 0-572.873 270.813-572.873 677.032 0 408.823 229.149 679.636 572.873 679.636 346.328 0 575.477-270.813 575.477-679.636zm156.238 0c0 445.278-299.456 739.527-731.715 739.527-429.655 0-729.111-294.249-729.111-739.527 0-442.675 299.456-736.923 729.111-736.923 432.259 0 731.715 294.248 731.715 736.923z" class="fil1" fill="#f1df9c" fill-rule="nonzero" stroke-width="2.604"/><path id="path32" d="M7007.198 2499.81l-59.892-153.635-59.89 153.634zm75.515 96.346c7.812 20.832 26.04 31.248 41.663 31.248h5.208v5.208h-109.367v-5.208h5.208c10.416 0 23.436-10.416 18.228-31.248l-31.248-80.723h-130.198l-31.247 80.723c-7.812 20.832 5.208 31.248 18.227 31.248h2.604v5.208h-96.346v-5.208h5.207c13.02 0 31.248-10.416 41.664-31.248l109.367-257.792s18.227-39.06 18.227-49.476h2.604z" class="fil1" fill="#f1df9c" fill-rule="nonzero" stroke-width="2.604"/><path id="path34" d="M7220.723 2616.988h93.743c83.327 0 138.01-62.495 138.01-153.634 0-93.743-54.683-153.634-138.01-153.634h-93.743zm93.743-322.892c104.159 0 174.466 67.703 174.466 169.258s-70.307 169.258-174.466 169.258H7153.02v-5.208h5.208c15.624 0 31.247-13.02 31.247-31.248v-268.209c0-15.623-15.623-28.643-31.247-28.643h-5.208v-5.208z" class="fil1" fill="#f1df9c" fill-rule="nonzero" stroke-width="2.604"/><path id="path36" d="M7856.091 2294.096v5.208h-2.604c-15.624 0-33.851 7.812-44.267 31.247l-114.575 257.793s-18.227 39.06-18.227 49.476h-5.208l-135.407-307.269c-7.812-23.435-26.04-31.247-41.663-31.247h-2.604v-5.208h106.762v5.208h-2.604c-13.02 0-26.04 10.416-18.227 31.247l98.95 249.982 104.16-249.982c7.811-20.831-5.209-31.247-15.625-31.247h-5.208v-5.208z" class="fil1" fill="#f1df9c" fill-rule="nonzero" stroke-width="2.604"/><path id="path38" d="M8178.983 2463.354c0-96.347-54.683-161.446-138.01-161.446-80.723 0-135.406 65.1-135.406 161.446 0 96.347 54.683 161.446 135.406 161.446 83.327 0 138.01-65.1 138.01-161.446zm36.456 0c0 104.159-70.307 174.466-174.466 174.466-101.555 0-171.862-70.307-171.862-174.466s70.307-174.466 171.862-174.466c104.159 0 174.466 70.307 174.466 174.466z" class="fil1" fill="#f1df9c" fill-rule="nonzero" stroke-width="2.604"/><path id="path40" d="M8603.43 2476.374c-15.624 0-23.436 7.812-23.436 20.832v78.119c-23.435 31.247-67.703 62.495-140.614 62.495-101.555 0-171.862-70.307-171.862-174.466s70.307-174.466 171.862-174.466c54.684 0 88.535 13.02 117.179 31.247l10.416 67.704h-5.208c-13.02-54.684-57.288-85.931-122.387-85.931-80.723 0-135.406 65.1-135.406 161.446 0 96.347 54.683 161.446 135.406 161.446 41.664 0 80.723-15.624 109.367-41.663v-85.932c0-13.02-7.812-20.831-23.436-20.831h-7.812v-5.208h93.743v5.208z" class="fil1" fill="#f1df9c" fill-rule="nonzero" stroke-width="2.604"/><path id="path42" d="M8845.6 2499.81l-57.288-153.635-59.891 153.634zm75.514 96.346c10.416 20.832 28.644 31.248 44.268 31.248h2.604v5.208h-106.763v-5.208h2.604c13.02 0 26.04-10.416 18.228-31.248l-31.248-80.723h-127.594l-33.852 80.723c-5.208 20.832 7.812 31.248 18.228 31.248h5.208v5.208h-96.347v-5.208h2.604c15.624 0 33.852-10.416 44.268-31.248l106.762-257.792s18.228-39.06 18.228-49.476h5.208z" class="fil1" fill="#f1df9c" fill-rule="nonzero" stroke-width="2.604"/><path id="path44" d="M9061.729 2616.988h93.743c83.326 0 135.406-62.495 135.406-153.634 0-93.743-54.684-153.634-135.407-153.634h-93.742zm93.743-322.892c101.554 0 171.861 67.703 171.861 169.258s-70.307 169.258-171.862 169.258h-164.05v-5.208h7.812c15.624 0 28.644-13.02 31.248-31.248v-268.209c0-15.623-15.624-28.643-31.248-28.643h-7.812v-5.208z" class="fil1" fill="#f1df9c" fill-rule="nonzero" stroke-width="2.604"/><path id="path46" d="M9694.493 2463.354c0-96.347-54.684-161.446-135.407-161.446-80.722 0-135.406 65.1-135.406 161.446 0 96.347 54.684 161.446 135.406 161.446 80.723 0 135.407-65.1 135.407-161.446zm36.455 0c0 104.159-70.307 174.466-171.862 174.466-101.554 0-171.861-70.307-171.861-174.466s70.307-174.466 171.861-174.466c101.555 0 171.862 70.307 171.862 174.466z" class="fil1" fill="#f1df9c" fill-rule="nonzero" stroke-width="2.604"/><path id="path48" d="M9934.058 2489.394c18.228 18.227 23.436 39.06 23.436 59.89 0 52.08-33.852 88.536-91.14 88.536-23.435 0-62.495-5.208-80.722-26.04-2.604-15.624-2.604-44.267 5.208-67.703h5.207c-5.207 49.475 26.04 83.327 67.704 80.723 36.455-2.604 65.1-26.04 65.1-65.1 0-18.227-5.209-33.85-18.229-44.267l-93.743-85.93c-18.228-18.229-26.04-41.664-26.04-59.892 0-41.664 31.248-80.723 85.932-80.723 13.02 0 28.643 0 41.663 5.208h18.228v57.288h-5.208c0-31.249-23.436-49.476-52.08-49.476-36.455 0-59.89 26.04-59.89 54.683 0 13.02 2.603 31.248 18.227 44.268z" class="fil1" fill="#f1df9c" fill-rule="nonzero" stroke-width="2.604"/><path id="path50" d="M10329.861 2499.81l-57.287-153.635-59.892 153.634zm78.119 96.346c7.812 20.832 26.04 31.248 41.663 31.248h2.604v5.208h-106.762v-5.208h2.604c13.02 0 26.04-10.416 18.228-31.248l-28.644-80.723h-130.199l-33.851 80.723c-5.208 20.832 7.812 31.248 18.228 31.248h5.208v5.208h-96.347v-5.208h5.208c13.02 0 31.247-10.416 41.663-31.248l109.367-257.792s18.228-39.06 18.228-49.476h2.604z" class="fil1" fill="#f1df9c" fill-rule="nonzero" stroke-width="2.604"/><path id="path52" d="M10624.109 2489.394c20.832 18.227 26.04 39.06 26.04 59.89 0 52.08-36.456 88.536-91.139 88.536-23.435 0-62.495-5.208-80.723-26.04-5.208-15.624-2.604-44.267 5.208-67.703h5.208c-5.208 49.475 26.04 83.327 67.703 80.723 36.456-2.604 65.099-26.04 65.099-65.1 0-18.227-7.812-33.85-18.227-44.267l-93.743-85.93c-18.228-18.229-26.04-41.664-26.04-59.892 0-41.664 31.248-80.723 85.931-80.723 13.02 0 28.644 0 41.663 5.208h18.228v57.288h-5.208c0-31.249-23.435-49.476-54.683-49.476-33.851 0-57.287 26.04-57.287 54.683 0 13.02 2.604 31.248 18.228 44.268z" class="fil1" fill="#f1df9c" fill-rule="nonzero" stroke-width="2.604"/><path id="path54" d="M10853.259 2489.394c20.832 18.227 26.039 39.06 26.039 59.89 0 52.08-36.455 88.536-91.139 88.536-23.435 0-62.495-5.208-80.723-26.04-5.208-15.624-2.604-44.267 5.208-67.703h2.604c-2.604 49.475 28.644 83.327 70.307 80.723 36.456-2.604 65.1-26.04 65.1-65.1 0-18.227-7.812-33.85-18.228-44.267l-93.743-85.93c-18.228-18.229-26.04-41.664-26.04-59.892 0-41.664 31.248-80.723 85.931-80.723 13.02 0 28.644 0 41.664 5.208h18.228v57.288h-5.208c0-31.249-23.436-49.476-54.684-49.476-33.851 0-57.287 26.04-57.287 54.683 0 13.02 2.604 31.248 18.228 44.268z" class="fil1" fill="#f1df9c" fill-rule="nonzero" stroke-width="2.604"/><path id="path56" d="M11249.062 2463.354c0-96.347-54.684-161.446-135.407-161.446-83.327 0-138.01 65.1-138.01 161.446 0 96.347 54.683 161.446 138.01 161.446 80.723 0 135.407-65.1 135.407-161.446zm36.455 0c0 104.159-70.307 174.466-171.862 174.466-104.158 0-174.465-70.307-174.465-174.466s70.307-174.466 174.465-174.466c101.555 0 171.862 70.307 171.862 174.466z" class="fil1" fill="#f1df9c" fill-rule="nonzero" stroke-width="2.604"/><path id="path58" d="M11652.677 2491.998l-7.812 75.515c-23.436 41.663-67.703 70.307-135.406 70.307-98.951 0-171.862-67.703-171.862-174.466 0-104.159 70.307-174.466 174.466-174.466 49.475 0 85.93 13.02 114.574 31.247l10.416 67.704h-5.208c-13.02-54.684-59.891-85.931-119.782-85.931-83.327 0-138.011 65.1-138.011 161.446 0 96.347 54.684 158.842 135.407 161.446 70.307 0 127.594-33.852 138.01-132.802z" class="fil1" fill="#f1df9c" fill-rule="nonzero" stroke-width="2.604"/><path id="path60" d="M11808.915 2632.612h-104.159v-5.208h5.208c18.228 0 31.248-13.02 31.248-31.248v-265.605c0-18.227-13.02-31.247-31.248-31.247h-5.208v-5.208h104.159v5.208h-5.208c-15.624 0-31.247 13.02-31.247 31.247v265.605c0 18.228 15.623 31.248 31.247 31.248h5.208z" class="fil1" fill="#f1df9c" fill-rule="nonzero" stroke-width="2.604"/><path id="path62" d="M12064.104 2499.81l-57.288-153.635-59.891 153.634zm75.515 96.346c10.416 20.832 28.644 31.248 41.663 31.248h5.208v5.208h-109.366v-5.208h5.208c13.019 0 26.039-10.416 18.227-31.248l-31.247-80.723h-130.199l-31.247 80.723c-7.812 20.832 5.208 31.248 18.228 31.248h5.208v5.208h-96.347v-5.208h2.604c15.623 0 33.851-10.416 41.663-31.248l109.367-257.792s18.227-39.06 18.227-49.476h5.208z" class="fil1" fill="#f1df9c" fill-rule="nonzero" stroke-width="2.604"/><path id="path64" d="M12277.629 2616.988h96.347c80.723 0 135.406-62.495 135.406-153.634 0-93.743-54.683-153.634-135.406-153.634h-96.347zm96.347-322.892c101.555 0 171.862 67.703 171.862 169.258s-70.307 169.258-171.862 169.258h-164.05v-5.208h7.812c15.624 0 28.644-13.02 28.644-31.248v-268.209c0-15.623-13.02-28.643-28.644-28.643h-7.812v-5.208z" class="fil1" fill="#f1df9c" fill-rule="nonzero" stroke-width="2.604"/><path id="path66" d="M12912.998 2463.354c0-96.347-54.684-161.446-135.407-161.446-83.327 0-138.01 65.1-138.01 161.446 0 96.347 54.683 161.446 138.01 161.446 80.723 0 135.407-65.1 135.407-161.446zm36.455 0c0 104.159-70.307 174.466-171.862 174.466-104.159 0-174.466-70.307-174.466-174.466s70.307-174.466 174.466-174.466c101.555 0 171.862 70.307 171.862 174.466z" class="fil1" fill="#f1df9c" fill-rule="nonzero" stroke-width="2.604"/><path id="path68" d="M13149.959 2489.394c20.831 18.227 26.039 39.06 26.039 59.89 0 52.08-36.455 88.536-91.139 88.536-23.435 0-62.495-5.208-80.723-26.04-5.208-15.624-2.604-44.267 5.208-67.703h5.208c-5.208 49.475 26.04 83.327 67.704 80.723 36.455-2.604 65.099-26.04 65.099-65.1 0-18.227-7.812-33.85-18.228-44.267l-93.743-85.93c-18.228-18.229-26.04-41.664-26.04-59.892 0-41.664 31.248-80.723 85.931-80.723 13.02 0 28.644 0 41.664 5.208h18.228v57.288h-5.208c0-31.249-23.436-49.476-54.684-49.476-33.851 0-57.287 26.04-57.287 54.683 0 13.02 2.604 31.248 18.228 44.268z" class="fil1" fill="#f1df9c" fill-rule="nonzero" stroke-width="2.604"/><path id="polygon70" transform="matrix(2.60397 0 0 2.60397 -2226.474 -5702.69)" fill="#c1933d" fill-rule="nonzero" d="M3321 3125v16H2128v-16z"/><path id="path72" d="M2872.096 2.604H645.703C288.96 2.604-.08 291.644-.08 648.388v1968.6h2872.177zM1184.725 276.021h-2.604 507.774L2710.65 2343.57H911.308l231.753-471.318h830.666l-536.418-1083.25L666.536 2343.57h-505.17z" fill="url(#id0)" stroke-width="2.604"/></svg>
